<mxfile host="app.diagrams.net" modified="2023-03-27T20:45:14.908Z" agent="5.0 (Windows NT 10.0; Win64; x64) AppleWebKit/537.36 (KHTML, like Gecko) Chrome/111.0.0.0 Safari/537.36" etag="tKlA-UcI_e_bUIfliBF3" version="20.5.3" type="github">
  <diagram id="R2lEEEUBdFMjLlhIrx00" name="Page-1">
    <mxGraphModel dx="2554" dy="652" grid="1" gridSize="10" guides="1" tooltips="1" connect="1" arrows="1" fold="1" page="1" pageScale="1" pageWidth="850" pageHeight="1100" math="0" shadow="0" extFonts="Permanent Marker^https://fonts.googleapis.com/css?family=Permanent+Marker">
      <root>
        <mxCell id="0" />
        <mxCell id="1" parent="0" />
        <mxCell id="maS0jKPrXII0S9KqRdAt-1" value="Usuarios" style="whiteSpace=wrap;html=1;align=center;" vertex="1" parent="1">
          <mxGeometry x="152" y="208" width="100" height="40" as="geometry" />
        </mxCell>
        <mxCell id="maS0jKPrXII0S9KqRdAt-2" value="Documentos" style="whiteSpace=wrap;html=1;align=center;" vertex="1" parent="1">
          <mxGeometry x="812" y="208" width="100" height="40" as="geometry" />
        </mxCell>
        <mxCell id="maS0jKPrXII0S9KqRdAt-3" value="reserva" style="shape=rhombus;perimeter=rhombusPerimeter;whiteSpace=wrap;html=1;align=center;" vertex="1" parent="1">
          <mxGeometry x="478" y="198" width="120" height="60" as="geometry" />
        </mxCell>
        <mxCell id="maS0jKPrXII0S9KqRdAt-5" value="" style="edgeStyle=entityRelationEdgeStyle;fontSize=12;html=1;endArrow=ERoneToMany;rounded=0;exitX=1;exitY=0.5;exitDx=0;exitDy=0;" edge="1" parent="1" source="maS0jKPrXII0S9KqRdAt-3" target="maS0jKPrXII0S9KqRdAt-2">
          <mxGeometry width="100" height="100" relative="1" as="geometry">
            <mxPoint x="691" y="228" as="sourcePoint" />
            <mxPoint x="641" y="198" as="targetPoint" />
          </mxGeometry>
        </mxCell>
        <mxCell id="maS0jKPrXII0S9KqRdAt-6" value="" style="edgeStyle=entityRelationEdgeStyle;fontSize=12;html=1;endArrow=ERoneToMany;rounded=0;exitX=0;exitY=0.5;exitDx=0;exitDy=0;entryX=1;entryY=0.5;entryDx=0;entryDy=0;" edge="1" parent="1" source="maS0jKPrXII0S9KqRdAt-3" target="maS0jKPrXII0S9KqRdAt-1">
          <mxGeometry width="100" height="100" relative="1" as="geometry">
            <mxPoint x="448" y="298" as="sourcePoint" />
            <mxPoint x="548" y="198" as="targetPoint" />
          </mxGeometry>
        </mxCell>
        <mxCell id="maS0jKPrXII0S9KqRdAt-7" value="nombre" style="ellipse;whiteSpace=wrap;html=1;align=center;" vertex="1" parent="1">
          <mxGeometry x="-30" y="403" width="100" height="40" as="geometry" />
        </mxCell>
        <mxCell id="maS0jKPrXII0S9KqRdAt-8" value="DNI" style="ellipse;whiteSpace=wrap;html=1;align=center;fontStyle=4;" vertex="1" parent="1">
          <mxGeometry x="72" y="258" width="100" height="40" as="geometry" />
        </mxCell>
        <mxCell id="maS0jKPrXII0S9KqRdAt-9" value="apellido1" style="ellipse;whiteSpace=wrap;html=1;align=center;" vertex="1" parent="1">
          <mxGeometry x="92" y="433" width="100" height="40" as="geometry" />
        </mxCell>
        <mxCell id="maS0jKPrXII0S9KqRdAt-10" value="apellido2" style="ellipse;whiteSpace=wrap;html=1;align=center;" vertex="1" parent="1">
          <mxGeometry x="222" y="413" width="100" height="40" as="geometry" />
        </mxCell>
        <mxCell id="maS0jKPrXII0S9KqRdAt-11" value="telefono" style="ellipse;whiteSpace=wrap;html=1;align=center;" vertex="1" parent="1">
          <mxGeometry x="110" y="336" width="100" height="40" as="geometry" />
        </mxCell>
        <mxCell id="maS0jKPrXII0S9KqRdAt-13" value="domicilio" style="ellipse;whiteSpace=wrap;html=1;align=center;" vertex="1" parent="1">
          <mxGeometry x="266" y="318" width="100" height="40" as="geometry" />
        </mxCell>
        <mxCell id="maS0jKPrXII0S9KqRdAt-16" value="" style="endArrow=none;html=1;rounded=0;exitX=0.5;exitY=0;exitDx=0;exitDy=0;" edge="1" parent="1" source="maS0jKPrXII0S9KqRdAt-11" target="maS0jKPrXII0S9KqRdAt-1">
          <mxGeometry relative="1" as="geometry">
            <mxPoint x="222" y="313" as="sourcePoint" />
            <mxPoint x="382" y="313" as="targetPoint" />
          </mxGeometry>
        </mxCell>
        <mxCell id="maS0jKPrXII0S9KqRdAt-17" value="" style="endArrow=none;html=1;rounded=0;exitX=0.5;exitY=0;exitDx=0;exitDy=0;entryX=0.5;entryY=1;entryDx=0;entryDy=0;" edge="1" parent="1" source="maS0jKPrXII0S9KqRdAt-13" target="maS0jKPrXII0S9KqRdAt-1">
          <mxGeometry relative="1" as="geometry">
            <mxPoint x="192" y="323" as="sourcePoint" />
            <mxPoint x="352" y="323" as="targetPoint" />
          </mxGeometry>
        </mxCell>
        <mxCell id="maS0jKPrXII0S9KqRdAt-18" value="" style="endArrow=none;html=1;rounded=0;exitX=0.5;exitY=0;exitDx=0;exitDy=0;entryX=0.5;entryY=1;entryDx=0;entryDy=0;" edge="1" parent="1" source="maS0jKPrXII0S9KqRdAt-8" target="maS0jKPrXII0S9KqRdAt-1">
          <mxGeometry relative="1" as="geometry">
            <mxPoint x="162" y="363" as="sourcePoint" />
            <mxPoint x="322" y="363" as="targetPoint" />
          </mxGeometry>
        </mxCell>
        <mxCell id="maS0jKPrXII0S9KqRdAt-19" value="" style="endArrow=none;html=1;rounded=0;exitX=0.42;exitY=0;exitDx=0;exitDy=0;exitPerimeter=0;entryX=0.5;entryY=1;entryDx=0;entryDy=0;" edge="1" parent="1" source="maS0jKPrXII0S9KqRdAt-7" target="maS0jKPrXII0S9KqRdAt-1">
          <mxGeometry relative="1" as="geometry">
            <mxPoint x="162" y="363" as="sourcePoint" />
            <mxPoint x="322" y="363" as="targetPoint" />
          </mxGeometry>
        </mxCell>
        <mxCell id="maS0jKPrXII0S9KqRdAt-20" value="" style="endArrow=none;html=1;rounded=0;exitX=0.5;exitY=0;exitDx=0;exitDy=0;entryX=0.5;entryY=1;entryDx=0;entryDy=0;" edge="1" parent="1" source="maS0jKPrXII0S9KqRdAt-9" target="maS0jKPrXII0S9KqRdAt-1">
          <mxGeometry relative="1" as="geometry">
            <mxPoint x="162" y="363" as="sourcePoint" />
            <mxPoint x="202" y="243" as="targetPoint" />
          </mxGeometry>
        </mxCell>
        <mxCell id="maS0jKPrXII0S9KqRdAt-21" value="" style="endArrow=none;html=1;rounded=0;exitX=0.5;exitY=0;exitDx=0;exitDy=0;entryX=0.5;entryY=1;entryDx=0;entryDy=0;" edge="1" parent="1" source="maS0jKPrXII0S9KqRdAt-10" target="maS0jKPrXII0S9KqRdAt-1">
          <mxGeometry relative="1" as="geometry">
            <mxPoint x="162" y="363" as="sourcePoint" />
            <mxPoint x="322" y="363" as="targetPoint" />
          </mxGeometry>
        </mxCell>
        <mxCell id="maS0jKPrXII0S9KqRdAt-22" value="fecha_inicio" style="ellipse;whiteSpace=wrap;html=1;align=center;" vertex="1" parent="1">
          <mxGeometry x="529" y="273" width="100" height="40" as="geometry" />
        </mxCell>
        <mxCell id="maS0jKPrXII0S9KqRdAt-23" value="fecha_final" style="ellipse;whiteSpace=wrap;html=1;align=center;" vertex="1" parent="1">
          <mxGeometry x="525" y="319" width="100" height="40" as="geometry" />
        </mxCell>
        <mxCell id="maS0jKPrXII0S9KqRdAt-24" value="opinion" style="ellipse;whiteSpace=wrap;html=1;align=center;" vertex="1" parent="1">
          <mxGeometry x="498" y="369" width="100" height="40" as="geometry" />
        </mxCell>
        <mxCell id="maS0jKPrXII0S9KqRdAt-25" value="fecha_devolucion" style="ellipse;whiteSpace=wrap;html=1;align=center;" vertex="1" parent="1">
          <mxGeometry x="492" y="413" width="100" height="40" as="geometry" />
        </mxCell>
        <mxCell id="maS0jKPrXII0S9KqRdAt-26" value="tipo" style="ellipse;whiteSpace=wrap;html=1;align=center;" vertex="1" parent="1">
          <mxGeometry x="492" y="458" width="100" height="40" as="geometry" />
        </mxCell>
        <mxCell id="maS0jKPrXII0S9KqRdAt-27" value="" style="endArrow=none;html=1;rounded=0;entryX=0;entryY=0.5;entryDx=0;entryDy=0;exitX=0.127;exitY=0.633;exitDx=0;exitDy=0;exitPerimeter=0;" edge="1" parent="1" source="maS0jKPrXII0S9KqRdAt-3" target="maS0jKPrXII0S9KqRdAt-26">
          <mxGeometry relative="1" as="geometry">
            <mxPoint x="435" y="363" as="sourcePoint" />
            <mxPoint x="595" y="363" as="targetPoint" />
            <Array as="points">
              <mxPoint x="455" y="283" />
            </Array>
          </mxGeometry>
        </mxCell>
        <mxCell id="maS0jKPrXII0S9KqRdAt-28" value="" style="endArrow=none;html=1;rounded=0;entryX=0;entryY=0.5;entryDx=0;entryDy=0;exitX=0;exitY=1;exitDx=0;exitDy=0;" edge="1" parent="1" source="maS0jKPrXII0S9KqRdAt-3" target="maS0jKPrXII0S9KqRdAt-25">
          <mxGeometry relative="1" as="geometry">
            <mxPoint x="435" y="363" as="sourcePoint" />
            <mxPoint x="595" y="363" as="targetPoint" />
            <Array as="points">
              <mxPoint x="475" y="313" />
            </Array>
          </mxGeometry>
        </mxCell>
        <mxCell id="maS0jKPrXII0S9KqRdAt-29" value="" style="endArrow=none;html=1;rounded=0;entryX=0;entryY=0.5;entryDx=0;entryDy=0;exitX=0.5;exitY=1;exitDx=0;exitDy=0;" edge="1" parent="1" source="maS0jKPrXII0S9KqRdAt-3" target="maS0jKPrXII0S9KqRdAt-24">
          <mxGeometry relative="1" as="geometry">
            <mxPoint x="485" y="333" as="sourcePoint" />
            <mxPoint x="595" y="363" as="targetPoint" />
            <Array as="points">
              <mxPoint x="505" y="263" />
              <mxPoint x="485" y="313" />
            </Array>
          </mxGeometry>
        </mxCell>
        <mxCell id="maS0jKPrXII0S9KqRdAt-30" value="" style="endArrow=none;html=1;rounded=0;entryX=0;entryY=0.5;entryDx=0;entryDy=0;exitX=0.5;exitY=1;exitDx=0;exitDy=0;" edge="1" parent="1" source="maS0jKPrXII0S9KqRdAt-3" target="maS0jKPrXII0S9KqRdAt-23">
          <mxGeometry relative="1" as="geometry">
            <mxPoint x="435" y="363" as="sourcePoint" />
            <mxPoint x="595" y="363" as="targetPoint" />
            <Array as="points">
              <mxPoint x="505" y="303" />
            </Array>
          </mxGeometry>
        </mxCell>
        <mxCell id="maS0jKPrXII0S9KqRdAt-31" value="" style="endArrow=none;html=1;rounded=0;entryX=0;entryY=0.5;entryDx=0;entryDy=0;exitX=1;exitY=1;exitDx=0;exitDy=0;" edge="1" parent="1" source="maS0jKPrXII0S9KqRdAt-3" target="maS0jKPrXII0S9KqRdAt-22">
          <mxGeometry relative="1" as="geometry">
            <mxPoint x="435" y="363" as="sourcePoint" />
            <mxPoint x="595" y="363" as="targetPoint" />
          </mxGeometry>
        </mxCell>
        <mxCell id="maS0jKPrXII0S9KqRdAt-32" value="Libros" style="whiteSpace=wrap;html=1;align=center;" vertex="1" parent="1">
          <mxGeometry x="712" y="380" width="100" height="40" as="geometry" />
        </mxCell>
        <mxCell id="maS0jKPrXII0S9KqRdAt-33" value="Digital" style="whiteSpace=wrap;html=1;align=center;" vertex="1" parent="1">
          <mxGeometry x="892" y="380" width="100" height="40" as="geometry" />
        </mxCell>
        <mxCell id="maS0jKPrXII0S9KqRdAt-35" value="codigodocumento" style="ellipse;whiteSpace=wrap;html=1;align=center;fontStyle=4;" vertex="1" parent="1">
          <mxGeometry x="690" y="270" width="100" height="40" as="geometry" />
        </mxCell>
        <mxCell id="maS0jKPrXII0S9KqRdAt-36" value="" style="endArrow=none;html=1;rounded=0;exitX=0.5;exitY=0;exitDx=0;exitDy=0;entryX=0.5;entryY=1;entryDx=0;entryDy=0;" edge="1" parent="1" source="maS0jKPrXII0S9KqRdAt-35" target="maS0jKPrXII0S9KqRdAt-2">
          <mxGeometry relative="1" as="geometry">
            <mxPoint x="663" y="180" as="sourcePoint" />
            <mxPoint x="823" y="180" as="targetPoint" />
          </mxGeometry>
        </mxCell>
        <mxCell id="maS0jKPrXII0S9KqRdAt-38" value="titulo" style="ellipse;whiteSpace=wrap;html=1;align=center;" vertex="1" parent="1">
          <mxGeometry x="743" y="310" width="100" height="40" as="geometry" />
        </mxCell>
        <mxCell id="maS0jKPrXII0S9KqRdAt-39" value="descripcion" style="ellipse;whiteSpace=wrap;html=1;align=center;" vertex="1" parent="1">
          <mxGeometry x="939" y="315" width="100" height="40" as="geometry" />
        </mxCell>
        <mxCell id="maS0jKPrXII0S9KqRdAt-40" value="" style="endArrow=none;html=1;rounded=0;entryX=0.5;entryY=0;entryDx=0;entryDy=0;exitX=0.5;exitY=1;exitDx=0;exitDy=0;" edge="1" parent="1" source="maS0jKPrXII0S9KqRdAt-2" target="maS0jKPrXII0S9KqRdAt-38">
          <mxGeometry relative="1" as="geometry">
            <mxPoint x="673" y="180" as="sourcePoint" />
            <mxPoint x="833" y="180" as="targetPoint" />
          </mxGeometry>
        </mxCell>
        <mxCell id="maS0jKPrXII0S9KqRdAt-42" value="" style="endArrow=none;html=1;rounded=0;entryX=0;entryY=0.5;entryDx=0;entryDy=0;exitX=0.75;exitY=1;exitDx=0;exitDy=0;" edge="1" parent="1" source="maS0jKPrXII0S9KqRdAt-2" target="maS0jKPrXII0S9KqRdAt-39">
          <mxGeometry relative="1" as="geometry">
            <mxPoint x="673" y="180" as="sourcePoint" />
            <mxPoint x="833" y="180" as="targetPoint" />
          </mxGeometry>
        </mxCell>
        <mxCell id="maS0jKPrXII0S9KqRdAt-44" value="" style="endArrow=classic;html=1;rounded=0;entryX=0.5;entryY=1;entryDx=0;entryDy=0;" edge="1" parent="1" target="maS0jKPrXII0S9KqRdAt-2">
          <mxGeometry width="50" height="50" relative="1" as="geometry">
            <mxPoint x="762" y="380" as="sourcePoint" />
            <mxPoint x="812" y="330" as="targetPoint" />
            <Array as="points">
              <mxPoint x="853" y="370" />
            </Array>
          </mxGeometry>
        </mxCell>
        <mxCell id="maS0jKPrXII0S9KqRdAt-45" value="" style="endArrow=classic;html=1;rounded=0;exitX=0.5;exitY=0;exitDx=0;exitDy=0;" edge="1" parent="1" source="maS0jKPrXII0S9KqRdAt-33" target="maS0jKPrXII0S9KqRdAt-2">
          <mxGeometry width="50" height="50" relative="1" as="geometry">
            <mxPoint x="723" y="410" as="sourcePoint" />
            <mxPoint x="773" y="360" as="targetPoint" />
            <Array as="points">
              <mxPoint x="893" y="370" />
              <mxPoint x="870" y="360" />
            </Array>
          </mxGeometry>
        </mxCell>
        <mxCell id="maS0jKPrXII0S9KqRdAt-46" value="ISBN" style="ellipse;whiteSpace=wrap;html=1;align=center;fontStyle=4;" vertex="1" parent="1">
          <mxGeometry x="629" y="460" width="100" height="40" as="geometry" />
        </mxCell>
        <mxCell id="maS0jKPrXII0S9KqRdAt-47" value="editorial" style="ellipse;whiteSpace=wrap;html=1;align=center;" vertex="1" parent="1">
          <mxGeometry x="678" y="505" width="100" height="40" as="geometry" />
        </mxCell>
        <mxCell id="maS0jKPrXII0S9KqRdAt-48" value="autor" style="ellipse;whiteSpace=wrap;html=1;align=center;" vertex="1" parent="1">
          <mxGeometry x="725" y="554" width="100" height="40" as="geometry" />
        </mxCell>
        <mxCell id="maS0jKPrXII0S9KqRdAt-49" value="tematica" style="ellipse;whiteSpace=wrap;html=1;align=center;" vertex="1" parent="1">
          <mxGeometry x="747" y="460" width="100" height="40" as="geometry" />
        </mxCell>
        <mxCell id="maS0jKPrXII0S9KqRdAt-50" value="" style="endArrow=none;html=1;rounded=0;exitX=0.5;exitY=0;exitDx=0;exitDy=0;" edge="1" parent="1" source="maS0jKPrXII0S9KqRdAt-46" target="maS0jKPrXII0S9KqRdAt-32">
          <mxGeometry relative="1" as="geometry">
            <mxPoint x="630" y="500" as="sourcePoint" />
            <mxPoint x="790" y="500" as="targetPoint" />
          </mxGeometry>
        </mxCell>
        <mxCell id="maS0jKPrXII0S9KqRdAt-51" value="" style="endArrow=none;html=1;rounded=0;exitX=0.5;exitY=0;exitDx=0;exitDy=0;" edge="1" parent="1" source="maS0jKPrXII0S9KqRdAt-47" target="maS0jKPrXII0S9KqRdAt-32">
          <mxGeometry relative="1" as="geometry">
            <mxPoint x="630" y="500" as="sourcePoint" />
            <mxPoint x="790" y="500" as="targetPoint" />
          </mxGeometry>
        </mxCell>
        <mxCell id="maS0jKPrXII0S9KqRdAt-52" value="" style="endArrow=none;html=1;rounded=0;entryX=0.5;entryY=0;entryDx=0;entryDy=0;exitX=0.672;exitY=0.98;exitDx=0;exitDy=0;exitPerimeter=0;" edge="1" parent="1" source="maS0jKPrXII0S9KqRdAt-32" target="maS0jKPrXII0S9KqRdAt-48">
          <mxGeometry relative="1" as="geometry">
            <mxPoint x="630" y="500" as="sourcePoint" />
            <mxPoint x="790" y="500" as="targetPoint" />
          </mxGeometry>
        </mxCell>
        <mxCell id="maS0jKPrXII0S9KqRdAt-53" value="" style="endArrow=none;html=1;rounded=0;entryX=0.5;entryY=0;entryDx=0;entryDy=0;exitX=0.75;exitY=1;exitDx=0;exitDy=0;" edge="1" parent="1" source="maS0jKPrXII0S9KqRdAt-32" target="maS0jKPrXII0S9KqRdAt-49">
          <mxGeometry relative="1" as="geometry">
            <mxPoint x="630" y="500" as="sourcePoint" />
            <mxPoint x="790" y="500" as="targetPoint" />
          </mxGeometry>
        </mxCell>
        <mxCell id="maS0jKPrXII0S9KqRdAt-54" value="Grupo" style="whiteSpace=wrap;html=1;align=center;" vertex="1" parent="1">
          <mxGeometry x="142" y="530" width="100" height="40" as="geometry" />
        </mxCell>
        <mxCell id="maS0jKPrXII0S9KqRdAt-55" value="" style="endArrow=classic;html=1;rounded=0;entryX=0.5;entryY=1;entryDx=0;entryDy=0;exitX=0.75;exitY=0;exitDx=0;exitDy=0;" edge="1" parent="1" source="maS0jKPrXII0S9KqRdAt-54" target="maS0jKPrXII0S9KqRdAt-1">
          <mxGeometry width="50" height="50" relative="1" as="geometry">
            <mxPoint x="210" y="370" as="sourcePoint" />
            <mxPoint x="260" y="320" as="targetPoint" />
          </mxGeometry>
        </mxCell>
        <mxCell id="maS0jKPrXII0S9KqRdAt-56" value="codigo_grupo" style="ellipse;whiteSpace=wrap;html=1;align=center;fontStyle=4;" vertex="1" parent="1">
          <mxGeometry x="78" y="596" width="100" height="40" as="geometry" />
        </mxCell>
        <mxCell id="maS0jKPrXII0S9KqRdAt-59" value="nombre" style="ellipse;whiteSpace=wrap;html=1;align=center;" vertex="1" parent="1">
          <mxGeometry x="200" y="596" width="100" height="40" as="geometry" />
        </mxCell>
        <mxCell id="maS0jKPrXII0S9KqRdAt-60" value="" style="endArrow=none;html=1;rounded=0;exitX=0.5;exitY=0;exitDx=0;exitDy=0;" edge="1" parent="1" source="maS0jKPrXII0S9KqRdAt-56" target="maS0jKPrXII0S9KqRdAt-54">
          <mxGeometry relative="1" as="geometry">
            <mxPoint x="140" y="670" as="sourcePoint" />
            <mxPoint x="300" y="670" as="targetPoint" />
          </mxGeometry>
        </mxCell>
        <mxCell id="maS0jKPrXII0S9KqRdAt-61" value="" style="endArrow=none;html=1;rounded=0;entryX=0.5;entryY=0;entryDx=0;entryDy=0;exitX=0.5;exitY=1;exitDx=0;exitDy=0;" edge="1" parent="1" source="maS0jKPrXII0S9KqRdAt-54" target="maS0jKPrXII0S9KqRdAt-59">
          <mxGeometry relative="1" as="geometry">
            <mxPoint x="140" y="670" as="sourcePoint" />
            <mxPoint x="300" y="670" as="targetPoint" />
          </mxGeometry>
        </mxCell>
        <mxCell id="maS0jKPrXII0S9KqRdAt-62" value="codigodigital" style="ellipse;whiteSpace=wrap;html=1;align=center;fontStyle=4;" vertex="1" parent="1">
          <mxGeometry x="984" y="433" width="100" height="40" as="geometry" />
        </mxCell>
        <mxCell id="maS0jKPrXII0S9KqRdAt-64" value="duracion" style="ellipse;whiteSpace=wrap;html=1;align=center;" vertex="1" parent="1">
          <mxGeometry x="1015" y="484" width="100" height="40" as="geometry" />
        </mxCell>
        <mxCell id="maS0jKPrXII0S9KqRdAt-65" value="formato" style="ellipse;whiteSpace=wrap;html=1;align=center;" vertex="1" parent="1">
          <mxGeometry x="1056" y="529" width="100" height="40" as="geometry" />
        </mxCell>
        <mxCell id="maS0jKPrXII0S9KqRdAt-66" value="" style="endArrow=none;html=1;rounded=0;exitX=0.5;exitY=0;exitDx=0;exitDy=0;" edge="1" parent="1" source="maS0jKPrXII0S9KqRdAt-62" target="maS0jKPrXII0S9KqRdAt-33">
          <mxGeometry relative="1" as="geometry">
            <mxPoint x="780" y="550" as="sourcePoint" />
            <mxPoint x="940" y="550" as="targetPoint" />
          </mxGeometry>
        </mxCell>
        <mxCell id="maS0jKPrXII0S9KqRdAt-67" value="" style="endArrow=none;html=1;rounded=0;exitX=1;exitY=0;exitDx=0;exitDy=0;" edge="1" parent="1" source="maS0jKPrXII0S9KqRdAt-64" target="maS0jKPrXII0S9KqRdAt-33">
          <mxGeometry relative="1" as="geometry">
            <mxPoint x="780" y="550" as="sourcePoint" />
            <mxPoint x="940" y="550" as="targetPoint" />
          </mxGeometry>
        </mxCell>
        <mxCell id="maS0jKPrXII0S9KqRdAt-68" value="" style="endArrow=none;html=1;rounded=0;entryX=1;entryY=0;entryDx=0;entryDy=0;exitX=0.75;exitY=1;exitDx=0;exitDy=0;" edge="1" parent="1" source="maS0jKPrXII0S9KqRdAt-33" target="maS0jKPrXII0S9KqRdAt-65">
          <mxGeometry relative="1" as="geometry">
            <mxPoint x="780" y="550" as="sourcePoint" />
            <mxPoint x="940" y="550" as="targetPoint" />
          </mxGeometry>
        </mxCell>
        <mxCell id="maS0jKPrXII0S9KqRdAt-69" value="peliculas" style="whiteSpace=wrap;html=1;align=center;" vertex="1" parent="1">
          <mxGeometry x="812" y="636" width="100" height="40" as="geometry" />
        </mxCell>
        <mxCell id="maS0jKPrXII0S9KqRdAt-70" value="documentales" style="whiteSpace=wrap;html=1;align=center;" vertex="1" parent="1">
          <mxGeometry x="939" y="636" width="100" height="40" as="geometry" />
        </mxCell>
        <mxCell id="maS0jKPrXII0S9KqRdAt-71" value="musica" style="whiteSpace=wrap;html=1;align=center;" vertex="1" parent="1">
          <mxGeometry x="1066" y="639" width="100" height="40" as="geometry" />
        </mxCell>
        <mxCell id="maS0jKPrXII0S9KqRdAt-72" value="director" style="ellipse;whiteSpace=wrap;html=1;align=center;" vertex="1" parent="1">
          <mxGeometry x="812" y="700" width="100" height="40" as="geometry" />
        </mxCell>
        <mxCell id="maS0jKPrXII0S9KqRdAt-73" value="duracion" style="ellipse;whiteSpace=wrap;html=1;align=center;" vertex="1" parent="1">
          <mxGeometry x="814" y="743" width="100" height="40" as="geometry" />
        </mxCell>
        <mxCell id="maS0jKPrXII0S9KqRdAt-75" value="actores" style="ellipse;whiteSpace=wrap;html=1;align=center;" vertex="1" parent="1">
          <mxGeometry x="810" y="790" width="100" height="40" as="geometry" />
        </mxCell>
        <mxCell id="maS0jKPrXII0S9KqRdAt-76" value="" style="endArrow=none;html=1;rounded=0;exitX=0;exitY=0.5;exitDx=0;exitDy=0;entryX=0.25;entryY=1;entryDx=0;entryDy=0;" edge="1" parent="1" source="maS0jKPrXII0S9KqRdAt-72" target="maS0jKPrXII0S9KqRdAt-69">
          <mxGeometry relative="1" as="geometry">
            <mxPoint x="780" y="560" as="sourcePoint" />
            <mxPoint x="860" y="670" as="targetPoint" />
          </mxGeometry>
        </mxCell>
        <mxCell id="maS0jKPrXII0S9KqRdAt-77" value="" style="endArrow=none;html=1;rounded=0;exitX=0;exitY=0.5;exitDx=0;exitDy=0;entryX=0.25;entryY=1;entryDx=0;entryDy=0;" edge="1" parent="1" source="maS0jKPrXII0S9KqRdAt-73" target="maS0jKPrXII0S9KqRdAt-69">
          <mxGeometry relative="1" as="geometry">
            <mxPoint x="780" y="560" as="sourcePoint" />
            <mxPoint x="940" y="560" as="targetPoint" />
          </mxGeometry>
        </mxCell>
        <mxCell id="maS0jKPrXII0S9KqRdAt-78" value="" style="endArrow=none;html=1;rounded=0;exitX=0;exitY=0.5;exitDx=0;exitDy=0;entryX=0;entryY=0.75;entryDx=0;entryDy=0;" edge="1" parent="1" source="maS0jKPrXII0S9KqRdAt-75" target="maS0jKPrXII0S9KqRdAt-69">
          <mxGeometry relative="1" as="geometry">
            <mxPoint x="780" y="560" as="sourcePoint" />
            <mxPoint x="940" y="560" as="targetPoint" />
          </mxGeometry>
        </mxCell>
        <mxCell id="maS0jKPrXII0S9KqRdAt-79" value="productora" style="ellipse;whiteSpace=wrap;html=1;align=center;" vertex="1" parent="1">
          <mxGeometry x="939" y="700" width="100" height="40" as="geometry" />
        </mxCell>
        <mxCell id="maS0jKPrXII0S9KqRdAt-80" value="premios" style="ellipse;whiteSpace=wrap;html=1;align=center;" vertex="1" parent="1">
          <mxGeometry x="939" y="743" width="100" height="40" as="geometry" />
        </mxCell>
        <mxCell id="maS0jKPrXII0S9KqRdAt-81" value="" style="endArrow=none;html=1;rounded=0;exitX=0;exitY=0.5;exitDx=0;exitDy=0;entryX=0.178;entryY=0.98;entryDx=0;entryDy=0;entryPerimeter=0;" edge="1" parent="1" source="maS0jKPrXII0S9KqRdAt-80" target="maS0jKPrXII0S9KqRdAt-70">
          <mxGeometry relative="1" as="geometry">
            <mxPoint x="780" y="560" as="sourcePoint" />
            <mxPoint x="940" y="560" as="targetPoint" />
          </mxGeometry>
        </mxCell>
        <mxCell id="maS0jKPrXII0S9KqRdAt-82" value="" style="endArrow=none;html=1;rounded=0;entryX=0.5;entryY=0;entryDx=0;entryDy=0;exitX=0.5;exitY=1;exitDx=0;exitDy=0;" edge="1" parent="1" source="maS0jKPrXII0S9KqRdAt-70" target="maS0jKPrXII0S9KqRdAt-79">
          <mxGeometry relative="1" as="geometry">
            <mxPoint x="780" y="560" as="sourcePoint" />
            <mxPoint x="940" y="560" as="targetPoint" />
          </mxGeometry>
        </mxCell>
        <mxCell id="maS0jKPrXII0S9KqRdAt-83" value="" style="endArrow=classic;html=1;rounded=0;exitX=0.5;exitY=0;exitDx=0;exitDy=0;entryX=0.5;entryY=1;entryDx=0;entryDy=0;" edge="1" parent="1" source="maS0jKPrXII0S9KqRdAt-69" target="maS0jKPrXII0S9KqRdAt-33">
          <mxGeometry width="50" height="50" relative="1" as="geometry">
            <mxPoint x="840" y="580" as="sourcePoint" />
            <mxPoint x="890" y="530" as="targetPoint" />
            <Array as="points">
              <mxPoint x="950" y="550" />
            </Array>
          </mxGeometry>
        </mxCell>
        <mxCell id="maS0jKPrXII0S9KqRdAt-84" value="" style="endArrow=classic;html=1;rounded=0;exitX=0.5;exitY=0;exitDx=0;exitDy=0;entryX=0.5;entryY=1;entryDx=0;entryDy=0;" edge="1" parent="1" source="maS0jKPrXII0S9KqRdAt-70" target="maS0jKPrXII0S9KqRdAt-33">
          <mxGeometry width="50" height="50" relative="1" as="geometry">
            <mxPoint x="870" y="620" as="sourcePoint" />
            <mxPoint x="920" y="570" as="targetPoint" />
          </mxGeometry>
        </mxCell>
        <mxCell id="maS0jKPrXII0S9KqRdAt-85" value="" style="endArrow=classic;html=1;rounded=0;exitX=0.5;exitY=0;exitDx=0;exitDy=0;entryX=0.5;entryY=1;entryDx=0;entryDy=0;" edge="1" parent="1" source="maS0jKPrXII0S9KqRdAt-71" target="maS0jKPrXII0S9KqRdAt-33">
          <mxGeometry width="50" height="50" relative="1" as="geometry">
            <mxPoint x="870" y="620" as="sourcePoint" />
            <mxPoint x="950" y="450" as="targetPoint" />
          </mxGeometry>
        </mxCell>
        <mxCell id="maS0jKPrXII0S9KqRdAt-86" value="cantantes" style="ellipse;whiteSpace=wrap;html=1;align=center;" vertex="1" parent="1">
          <mxGeometry x="1070" y="700" width="100" height="40" as="geometry" />
        </mxCell>
        <mxCell id="maS0jKPrXII0S9KqRdAt-87" value="" style="endArrow=none;html=1;rounded=0;exitX=0.5;exitY=0;exitDx=0;exitDy=0;entryX=0.5;entryY=1;entryDx=0;entryDy=0;" edge="1" parent="1" source="maS0jKPrXII0S9KqRdAt-86" target="maS0jKPrXII0S9KqRdAt-71">
          <mxGeometry relative="1" as="geometry">
            <mxPoint x="830" y="570" as="sourcePoint" />
            <mxPoint x="990" y="570" as="targetPoint" />
          </mxGeometry>
        </mxCell>
        <mxCell id="maS0jKPrXII0S9KqRdAt-88" value="Categoria" style="whiteSpace=wrap;html=1;align=center;" vertex="1" parent="1">
          <mxGeometry x="980" y="150" width="100" height="40" as="geometry" />
        </mxCell>
        <mxCell id="maS0jKPrXII0S9KqRdAt-89" value="" style="endArrow=classic;html=1;rounded=0;exitX=0;exitY=0.5;exitDx=0;exitDy=0;entryX=1;entryY=0.5;entryDx=0;entryDy=0;" edge="1" parent="1" source="maS0jKPrXII0S9KqRdAt-88" target="maS0jKPrXII0S9KqRdAt-2">
          <mxGeometry width="50" height="50" relative="1" as="geometry">
            <mxPoint x="890" y="240" as="sourcePoint" />
            <mxPoint x="940" y="190" as="targetPoint" />
          </mxGeometry>
        </mxCell>
        <mxCell id="maS0jKPrXII0S9KqRdAt-90" value="cod_Cat" style="ellipse;whiteSpace=wrap;html=1;align=center;fontStyle=4;" vertex="1" parent="1">
          <mxGeometry x="956" y="198" width="100" height="40" as="geometry" />
        </mxCell>
        <mxCell id="maS0jKPrXII0S9KqRdAt-91" value="nombre" style="ellipse;whiteSpace=wrap;html=1;align=center;" vertex="1" parent="1">
          <mxGeometry x="1066" y="198" width="100" height="40" as="geometry" />
        </mxCell>
        <mxCell id="maS0jKPrXII0S9KqRdAt-92" value="" style="endArrow=none;html=1;rounded=0;entryX=0.5;entryY=0;entryDx=0;entryDy=0;exitX=0.5;exitY=1;exitDx=0;exitDy=0;" edge="1" parent="1" source="maS0jKPrXII0S9KqRdAt-88" target="maS0jKPrXII0S9KqRdAt-90">
          <mxGeometry relative="1" as="geometry">
            <mxPoint x="830" y="210" as="sourcePoint" />
            <mxPoint x="990" y="210" as="targetPoint" />
          </mxGeometry>
        </mxCell>
        <mxCell id="maS0jKPrXII0S9KqRdAt-93" value="" style="endArrow=none;html=1;rounded=0;entryX=0.5;entryY=0;entryDx=0;entryDy=0;exitX=0.5;exitY=1;exitDx=0;exitDy=0;" edge="1" parent="1" source="maS0jKPrXII0S9KqRdAt-88" target="maS0jKPrXII0S9KqRdAt-91">
          <mxGeometry relative="1" as="geometry">
            <mxPoint x="830" y="210" as="sourcePoint" />
            <mxPoint x="990" y="210" as="targetPoint" />
          </mxGeometry>
        </mxCell>
        <mxCell id="maS0jKPrXII0S9KqRdAt-94" value="autor" style="whiteSpace=wrap;html=1;align=center;" vertex="1" parent="1">
          <mxGeometry x="760" width="100" height="40" as="geometry" />
        </mxCell>
        <mxCell id="maS0jKPrXII0S9KqRdAt-95" value="codigo_autor" style="ellipse;whiteSpace=wrap;html=1;align=center;fontStyle=4;" vertex="1" parent="1">
          <mxGeometry x="660" y="60" width="100" height="40" as="geometry" />
        </mxCell>
        <mxCell id="maS0jKPrXII0S9KqRdAt-96" value="datos_autor" style="ellipse;shape=doubleEllipse;margin=3;whiteSpace=wrap;html=1;align=center;" vertex="1" parent="1">
          <mxGeometry x="770" y="60" width="100" height="40" as="geometry" />
        </mxCell>
        <mxCell id="maS0jKPrXII0S9KqRdAt-98" value="nombre" style="ellipse;whiteSpace=wrap;html=1;align=center;" vertex="1" parent="1">
          <mxGeometry x="645" y="108" width="100" height="40" as="geometry" />
        </mxCell>
        <mxCell id="maS0jKPrXII0S9KqRdAt-99" value="apellido1" style="ellipse;whiteSpace=wrap;html=1;align=center;" vertex="1" parent="1">
          <mxGeometry x="767" y="138" width="100" height="40" as="geometry" />
        </mxCell>
        <mxCell id="maS0jKPrXII0S9KqRdAt-100" value="apellido2" style="ellipse;whiteSpace=wrap;html=1;align=center;" vertex="1" parent="1">
          <mxGeometry x="897" y="118" width="100" height="40" as="geometry" />
        </mxCell>
        <mxCell id="maS0jKPrXII0S9KqRdAt-101" value="" style="endArrow=none;html=1;rounded=0;exitX=1;exitY=0.5;exitDx=0;exitDy=0;entryX=0.5;entryY=1;entryDx=0;entryDy=0;" edge="1" parent="1" source="maS0jKPrXII0S9KqRdAt-98" target="maS0jKPrXII0S9KqRdAt-96">
          <mxGeometry relative="1" as="geometry">
            <mxPoint x="730" y="210" as="sourcePoint" />
            <mxPoint x="890" y="210" as="targetPoint" />
          </mxGeometry>
        </mxCell>
        <mxCell id="maS0jKPrXII0S9KqRdAt-102" value="" style="endArrow=none;html=1;rounded=0;exitX=0.5;exitY=0;exitDx=0;exitDy=0;entryX=0.5;entryY=1;entryDx=0;entryDy=0;" edge="1" parent="1" source="maS0jKPrXII0S9KqRdAt-99" target="maS0jKPrXII0S9KqRdAt-96">
          <mxGeometry relative="1" as="geometry">
            <mxPoint x="730" y="210" as="sourcePoint" />
            <mxPoint x="890" y="210" as="targetPoint" />
          </mxGeometry>
        </mxCell>
        <mxCell id="maS0jKPrXII0S9KqRdAt-103" value="" style="endArrow=none;html=1;rounded=0;entryX=0;entryY=0;entryDx=0;entryDy=0;exitX=0.5;exitY=1;exitDx=0;exitDy=0;" edge="1" parent="1" source="maS0jKPrXII0S9KqRdAt-96" target="maS0jKPrXII0S9KqRdAt-100">
          <mxGeometry relative="1" as="geometry">
            <mxPoint x="730" y="210" as="sourcePoint" />
            <mxPoint x="890" y="210" as="targetPoint" />
          </mxGeometry>
        </mxCell>
        <mxCell id="maS0jKPrXII0S9KqRdAt-104" value="" style="endArrow=none;html=1;rounded=0;exitX=0.5;exitY=0;exitDx=0;exitDy=0;entryX=0.5;entryY=1;entryDx=0;entryDy=0;" edge="1" parent="1" source="maS0jKPrXII0S9KqRdAt-95" target="maS0jKPrXII0S9KqRdAt-94">
          <mxGeometry relative="1" as="geometry">
            <mxPoint x="730" y="210" as="sourcePoint" />
            <mxPoint x="890" y="210" as="targetPoint" />
          </mxGeometry>
        </mxCell>
        <mxCell id="maS0jKPrXII0S9KqRdAt-105" value="" style="endArrow=none;html=1;rounded=0;entryX=0.5;entryY=0;entryDx=0;entryDy=0;exitX=0.5;exitY=1;exitDx=0;exitDy=0;" edge="1" parent="1" source="maS0jKPrXII0S9KqRdAt-94" target="maS0jKPrXII0S9KqRdAt-96">
          <mxGeometry relative="1" as="geometry">
            <mxPoint x="730" y="210" as="sourcePoint" />
            <mxPoint x="890" y="210" as="targetPoint" />
          </mxGeometry>
        </mxCell>
        <mxCell id="maS0jKPrXII0S9KqRdAt-106" value="" style="endArrow=classic;html=1;rounded=0;entryX=0.75;entryY=0;entryDx=0;entryDy=0;exitX=1;exitY=0.5;exitDx=0;exitDy=0;" edge="1" parent="1" source="maS0jKPrXII0S9KqRdAt-94" target="maS0jKPrXII0S9KqRdAt-2">
          <mxGeometry width="50" height="50" relative="1" as="geometry">
            <mxPoint x="780" y="240" as="sourcePoint" />
            <mxPoint x="830" y="190" as="targetPoint" />
            <Array as="points">
              <mxPoint x="890" y="20" />
            </Array>
          </mxGeometry>
        </mxCell>
        <mxCell id="maS0jKPrXII0S9KqRdAt-107" value="concierto" style="whiteSpace=wrap;html=1;align=center;" vertex="1" parent="1">
          <mxGeometry x="1225" y="650" width="100" height="40" as="geometry" />
        </mxCell>
        <mxCell id="maS0jKPrXII0S9KqRdAt-108" value="lugar" style="ellipse;whiteSpace=wrap;html=1;align=center;" vertex="1" parent="1">
          <mxGeometry x="1225" y="710" width="100" height="40" as="geometry" />
        </mxCell>
        <mxCell id="maS0jKPrXII0S9KqRdAt-109" value="codigoconcierto" style="ellipse;whiteSpace=wrap;html=1;align=center;fontStyle=4;" vertex="1" parent="1">
          <mxGeometry x="1225" y="762" width="100" height="40" as="geometry" />
        </mxCell>
        <mxCell id="maS0jKPrXII0S9KqRdAt-110" value="fecha" style="ellipse;whiteSpace=wrap;html=1;align=center;" vertex="1" parent="1">
          <mxGeometry x="1225" y="820" width="100" height="40" as="geometry" />
        </mxCell>
        <mxCell id="maS0jKPrXII0S9KqRdAt-111" value="" style="endArrow=none;html=1;rounded=0;exitX=0;exitY=0.5;exitDx=0;exitDy=0;entryX=0.25;entryY=1;entryDx=0;entryDy=0;" edge="1" parent="1" source="maS0jKPrXII0S9KqRdAt-110" target="maS0jKPrXII0S9KqRdAt-107">
          <mxGeometry relative="1" as="geometry">
            <mxPoint x="1110" y="640" as="sourcePoint" />
            <mxPoint x="1270" y="640" as="targetPoint" />
            <Array as="points">
              <mxPoint x="1200" y="740" />
            </Array>
          </mxGeometry>
        </mxCell>
        <mxCell id="maS0jKPrXII0S9KqRdAt-112" value="" style="endArrow=none;html=1;rounded=0;entryX=1;entryY=0.5;entryDx=0;entryDy=0;exitX=1;exitY=0.5;exitDx=0;exitDy=0;" edge="1" parent="1" source="maS0jKPrXII0S9KqRdAt-107" target="maS0jKPrXII0S9KqRdAt-109">
          <mxGeometry relative="1" as="geometry">
            <mxPoint x="1110" y="640" as="sourcePoint" />
            <mxPoint x="1270" y="640" as="targetPoint" />
            <Array as="points">
              <mxPoint x="1400" y="710" />
            </Array>
          </mxGeometry>
        </mxCell>
        <mxCell id="maS0jKPrXII0S9KqRdAt-113" value="" style="endArrow=none;html=1;rounded=0;exitX=1;exitY=0.5;exitDx=0;exitDy=0;entryX=1;entryY=0.75;entryDx=0;entryDy=0;" edge="1" parent="1" source="maS0jKPrXII0S9KqRdAt-108" target="maS0jKPrXII0S9KqRdAt-107">
          <mxGeometry relative="1" as="geometry">
            <mxPoint x="1110" y="640" as="sourcePoint" />
            <mxPoint x="1270" y="640" as="targetPoint" />
            <Array as="points">
              <mxPoint x="1350" y="710" />
            </Array>
          </mxGeometry>
        </mxCell>
        <mxCell id="maS0jKPrXII0S9KqRdAt-114" value="" style="endArrow=none;html=1;rounded=0;entryX=0;entryY=0.5;entryDx=0;entryDy=0;exitX=1;exitY=0.5;exitDx=0;exitDy=0;" edge="1" parent="1" source="maS0jKPrXII0S9KqRdAt-71" target="maS0jKPrXII0S9KqRdAt-107">
          <mxGeometry relative="1" as="geometry">
            <mxPoint x="1130" y="650" as="sourcePoint" />
            <mxPoint x="1290" y="650" as="targetPoint" />
          </mxGeometry>
        </mxCell>
      </root>
    </mxGraphModel>
  </diagram>
</mxfile>
